<svg width="894" height="750" viewBox="0 0 894 750" fill="none" xmlns="http://www.w3.org/2000/svg">
<g clip-path="url(#clip0_322_2)">
<path d="M616.156 739.268L406.228 355.794C406.169 354.855 405.882 353.946 405.394 353.147C404.905 352.347 404.229 351.682 403.427 351.21C402.506 350.676 401.454 350.418 400.394 350.468C400.36 350.465 400.326 350.468 400.292 350.466C400.257 350.468 400.223 350.465 400.189 350.468C398.753 350.4 397.347 350.897 396.264 351.855C395.181 352.814 394.506 354.159 394.38 355.61L171.888 739.268C171.517 739.919 171.276 740.636 171.179 741.381C171.082 742.126 171.131 742.882 171.322 743.608C171.514 744.333 171.845 745.013 172.296 745.609C172.747 746.205 173.31 746.705 173.952 747.081C174.594 747.456 175.302 747.7 176.037 747.798C176.772 747.896 177.519 747.846 178.235 747.651C178.951 747.457 179.622 747.121 180.21 746.664C180.798 746.206 181.291 745.636 181.661 744.985L400.142 368.246L606.383 744.985C606.753 745.636 607.246 746.206 607.834 746.664C608.422 747.121 609.093 747.457 609.809 747.651C610.525 747.846 611.272 747.896 612.007 747.798C612.741 747.7 613.45 747.456 614.092 747.081C614.734 746.705 615.297 746.205 615.748 745.609C616.199 745.013 616.53 744.333 616.721 743.608C616.913 742.882 616.962 742.126 616.865 741.381C616.768 740.636 616.527 739.919 616.156 739.268Z" fill="#3F3D56"/>
<path d="M365.529 673.538L389.234 668.002L379.537 572.308L344.55 580.477L365.529 673.538Z" fill="#FFB6B6"/>
<path d="M384.025 626.916L350.226 634.769L339.419 613.377L338.807 612.619C334.013 606.659 331.353 599.23 331.258 591.543L303.166 516.274L300.869 515.168C299.092 514.312 297.516 513.082 296.246 511.559C294.975 510.037 294.04 508.258 293.503 506.341C292.966 504.423 292.838 502.412 293.13 500.44C293.421 498.469 294.124 496.584 295.192 494.91L292.218 486.942L208.301 487.098L208.217 487.074L105.167 457.794L115.988 392.461L144.975 410.931C154.527 410.303 318.152 400.127 333.268 437.27C346.729 470.346 366.126 526.853 380.028 568.433C380.721 570.3 381.583 572.098 382.602 573.804C384.765 577.178 386.034 581.059 386.288 585.074C386.452 586.82 386.781 588.547 387.27 590.23C393.048 607.726 384.246 626.454 384.156 626.642L384.025 626.916Z" fill="#2F2E41"/>
<path d="M357.317 664.946L365.055 663.123L392.447 643.384L411.457 652.187L411.459 652.186C420.61 650.031 430.219 651.697 438.174 656.818C446.128 661.94 451.777 670.097 453.877 679.496L454.134 680.648L365.491 701.538L357.317 664.946Z" fill="#2F2E41"/>
<path d="M6.63314 667.38C9.04887 640.738 24.451 614.064 49.1544 604.615C40.17 632.249 41.122 662.212 51.842 689.202C56.0135 699.597 61.7214 710.717 58.4472 721.436C56.4102 728.106 51.0752 733.332 45.0329 736.687C38.9902 740.043 32.2207 741.769 25.5356 743.462L24.246 744.615C12.7842 720.513 4.21742 694.022 6.63314 667.38Z" fill="#F0F0F0"/>
<path d="M49.6938 604.591C35.3253 621.6 26.7352 642.659 25.1434 664.777C24.7154 669.532 25.0471 674.325 26.1264 678.978C27.3257 683.477 29.7199 687.576 33.0604 690.849C36.1132 693.963 39.6 696.798 41.8351 700.593C42.9501 702.552 43.6342 704.722 43.8426 706.961C44.051 709.2 43.7789 711.458 43.0443 713.586C41.3532 718.934 37.8217 723.363 34.2162 727.575C30.2129 732.251 25.98 737.045 24.4111 743.126C24.221 743.863 23.0775 743.528 23.2673 742.792C25.9969 732.213 36.0805 725.932 40.6753 716.335C42.8192 711.857 43.6132 706.713 41.3184 702.131C39.3117 698.124 35.7186 695.197 32.6001 692.071C29.294 688.925 26.8163 685.026 25.3832 680.714C24.0681 676.13 23.5505 671.358 23.8525 666.602C24.3598 655.885 26.5659 645.313 30.39 635.275C34.6903 623.793 40.9426 613.125 48.8763 603.731C49.3676 603.15 50.1819 604.014 49.6938 604.591Z" fill="white"/>
<path d="M25.6585 658.447C21.8485 657.657 18.4456 655.55 16.0576 652.502C13.6696 649.453 12.452 645.662 12.6221 641.806C12.6305 641.649 12.7001 641.501 12.8163 641.393C12.9324 641.286 13.086 641.228 13.2448 641.231C13.4035 641.233 13.5549 641.297 13.6671 641.408C13.7793 641.52 13.8436 641.67 13.8463 641.827C13.6812 645.418 14.8158 648.949 17.0454 651.784C19.2749 654.618 22.4526 656.568 26.0048 657.283C26.7765 657.439 26.4258 658.602 25.6585 658.447Z" fill="white"/>
<path d="M30.9825 689.648C37.6239 685.537 42.4155 679.162 44.4018 671.794C44.5979 671.064 45.762 671.396 45.5661 672.125C43.4843 679.789 38.484 686.413 31.563 690.676C30.903 691.082 30.3261 690.051 30.9825 689.648Z" fill="white"/>
<path d="M35.6648 624.945C36.9584 625.647 38.3719 625.938 39.7784 625.793C41.1849 625.648 42.5404 625.071 43.7231 624.114C44.3285 623.622 44.8615 624.85 44.2602 625.34C42.9495 626.389 41.4518 627.023 39.8981 627.188C38.3444 627.352 36.782 627.042 35.3472 626.283C35.2071 626.226 35.0899 626.104 35.0194 625.944C34.9489 625.783 34.9303 625.594 34.9675 625.417C35.0102 625.24 35.1075 625.091 35.2381 625.003C35.3687 624.915 35.522 624.894 35.6648 624.945Z" fill="white"/>
<path d="M126.446 649.947C126.062 650.216 125.677 650.485 125.292 650.764C120.136 654.408 115.284 658.466 110.784 662.897C110.43 663.235 110.077 663.582 109.734 663.928C99.0049 674.722 90.3667 687.419 84.2586 701.376C81.8331 706.931 79.8326 712.664 78.2742 718.525C76.1225 726.618 74.4315 735.565 69.8742 742.275C69.4065 742.981 68.8958 743.656 68.3448 744.299L25.2628 745.687C25.1633 745.64 25.0637 745.604 24.9637 745.558L23.2461 745.692C23.3054 745.385 23.3735 745.066 23.4329 744.759C23.4665 744.58 23.5098 744.401 23.5435 744.222C23.569 744.103 23.595 743.983 23.6112 743.874C23.6195 743.835 23.6283 743.795 23.6369 743.765C23.6531 743.656 23.6797 743.556 23.6963 743.457C24.0722 741.678 24.4612 739.899 24.8634 738.12C24.8631 738.11 24.8631 738.11 24.8724 738.099C27.8074 724.509 32.3393 711.317 38.373 698.797C38.5581 698.426 38.7424 698.045 38.9472 697.674C41.7492 692.128 44.9985 686.821 48.6624 681.806C50.6775 679.066 52.8296 676.431 55.1103 673.91C61.0159 667.406 67.9045 661.875 75.5236 657.52C90.7135 648.838 108.502 645.127 125.176 649.593C125.602 649.708 126.02 649.823 126.446 649.947Z" fill="#F0F0F0"/>
<path d="M127.026 649.961C105.759 654.98 86.589 666.681 72.2386 683.402C69.0864 686.946 66.5036 690.973 64.5852 695.335C62.8516 699.645 62.2853 704.348 62.945 708.955C63.4753 713.264 64.5086 717.609 63.9991 721.974C63.7056 724.204 62.9515 726.346 61.7863 728.259C60.6212 730.172 59.0711 731.814 57.238 733.076C52.7508 736.34 47.3769 737.772 42.0738 738.986C36.1857 740.335 30.0489 741.64 25.2231 745.563C24.6384 746.038 23.947 745.088 24.5308 744.613C32.9268 737.789 44.4987 738.786 53.7639 733.859C58.0872 731.561 61.755 727.924 62.685 722.894C63.4983 718.496 62.4365 714.015 61.8625 709.657C61.154 705.172 61.537 700.578 62.9779 696.278C64.6716 691.831 67.0975 687.71 70.1517 684.091C76.8998 675.831 84.8839 668.7 93.8114 662.961C103.965 656.353 115.155 651.559 126.899 648.786C127.626 648.615 127.748 649.791 127.026 649.961Z" fill="white"/>
<path d="M76.3461 677.641C73.7191 674.877 72.2453 671.344 72.1878 667.671C72.1303 663.999 73.4929 660.428 76.0322 657.595C76.5482 657.024 77.5375 657.735 77.0208 658.307C74.6509 660.941 73.3819 664.268 73.4431 667.687C73.5042 671.106 74.8914 674.393 77.3542 676.954C77.8887 677.511 76.8776 678.195 76.3461 677.641Z" fill="white"/>
<path d="M62.1941 706.795C69.6774 707.348 77.0996 705.131 82.9809 700.584C83.5632 700.134 84.2501 701.039 83.6685 701.489C77.5393 706.209 69.8104 708.501 62.0245 707.909C61.2824 707.852 61.4561 706.738 62.1941 706.795Z" fill="white"/>
<path d="M104.07 657.643C104.78 659.048 105.792 660.234 107.014 661.095C108.237 661.956 109.632 662.464 111.075 662.576C111.815 662.63 111.641 663.899 110.906 663.845C109.312 663.714 107.772 663.15 106.419 662.202C105.066 661.254 103.942 659.951 103.145 658.407C103.059 658.268 103.024 658.099 103.046 657.932C103.068 657.765 103.147 657.614 103.265 657.51C103.388 657.409 103.541 657.367 103.692 657.392C103.843 657.417 103.978 657.507 104.07 657.643Z" fill="white"/>
<path d="M710.129 667.38C707.713 640.738 692.311 614.064 667.607 604.615C676.592 632.249 675.64 662.212 664.92 689.202C660.748 699.597 655.04 710.717 658.314 721.436C660.352 728.106 665.687 733.332 671.729 736.687C677.772 740.043 684.541 741.769 691.226 743.462L692.516 744.615C703.978 720.513 712.544 694.022 710.129 667.38Z" fill="#F0F0F0"/>
<path d="M667.068 604.591C681.436 621.6 690.027 642.659 691.618 664.777C692.046 669.532 691.715 674.325 690.636 678.978C689.436 683.477 687.042 687.576 683.701 690.849C680.649 693.963 677.162 696.798 674.927 700.593C673.812 702.552 673.128 704.722 672.919 706.961C672.711 709.2 672.983 711.458 673.718 713.586C675.409 718.934 678.94 723.363 682.546 727.575C686.549 732.251 690.782 737.045 692.351 743.126C692.541 743.863 693.684 743.528 693.495 742.792C690.765 732.213 680.681 725.932 676.087 716.335C673.943 711.857 673.149 706.713 675.443 702.131C677.45 698.124 681.043 695.197 684.162 692.071C687.468 688.925 689.946 685.026 691.379 680.714C692.694 676.13 693.211 671.358 692.909 666.602C692.402 655.885 690.196 645.313 686.372 635.275C682.072 623.793 675.819 613.125 667.885 603.731C667.394 603.15 666.58 604.014 667.068 604.591Z" fill="white"/>
<path d="M691.043 658.447C694.56 657.657 697.701 655.55 699.905 652.502C702.11 649.453 703.234 645.662 703.077 641.806C703.069 641.649 703.005 641.501 702.897 641.394C702.79 641.286 702.648 641.228 702.502 641.231C702.355 641.233 702.215 641.297 702.112 641.409C702.008 641.52 701.949 641.67 701.946 641.828C702.099 645.419 701.052 648.95 698.994 651.784C696.935 654.618 694.002 656.568 690.723 657.283C690.011 657.439 690.335 658.602 691.043 658.447Z" fill="white"/>
<path d="M684.736 689.648C678.569 685.537 674.119 679.162 672.275 671.794C672.093 671.064 671.012 671.396 671.194 672.125C673.127 679.789 677.77 686.413 684.197 690.676C684.81 691.082 685.345 690.051 684.736 689.648Z" fill="white"/>
<path d="M681.017 624.945C679.58 625.647 678.009 625.938 676.446 625.793C674.883 625.648 673.377 625.071 672.063 624.114C671.391 623.622 670.798 624.85 671.466 625.34C672.923 626.389 674.587 627.023 676.313 627.188C678.039 627.352 679.776 627.042 681.37 626.283C681.525 626.226 681.656 626.104 681.734 625.944C681.812 625.783 681.833 625.594 681.792 625.417C681.744 625.24 681.636 625.091 681.491 625.003C681.346 624.915 681.176 624.894 681.017 624.945Z" fill="white"/>
<path d="M590.315 649.947C590.696 650.216 591.077 650.485 591.458 650.764C596.561 654.408 601.363 658.466 605.817 662.897C606.167 663.235 606.516 663.582 606.855 663.928C617.474 674.722 626.023 687.419 632.068 701.376C634.469 706.931 636.449 712.664 637.991 718.525C640.12 726.618 641.794 735.565 646.304 742.275C646.767 742.981 647.273 743.656 647.818 744.299L690.456 745.687C690.554 745.64 690.653 745.604 690.752 745.558L692.452 745.692C692.393 745.385 692.326 745.067 692.267 744.759C692.234 744.58 692.191 744.401 692.157 744.222C692.132 744.103 692.107 743.984 692.091 743.874C692.082 743.835 692.074 743.795 692.065 743.765C692.049 743.656 692.023 743.556 692.006 743.457C691.634 741.678 691.249 739.899 690.851 738.12C690.852 738.11 690.852 738.11 690.842 738.099C687.938 724.509 683.452 711.317 677.481 698.798C677.298 698.426 677.115 698.045 676.913 697.674C674.139 692.128 670.924 686.821 667.298 681.806C665.303 679.066 663.173 676.431 660.916 673.91C655.071 667.406 648.254 661.875 640.713 657.52C625.68 648.838 608.075 645.127 591.573 649.593C591.151 649.708 590.738 649.823 590.315 649.947Z" fill="#F0F0F0"/>
<path d="M589.736 649.961C611.002 654.98 630.172 666.681 644.523 683.402C647.675 686.946 650.258 690.973 652.176 695.335C653.91 699.645 654.476 704.348 653.816 708.955C653.286 713.264 652.253 717.609 652.762 721.974C653.056 724.204 653.81 726.346 654.975 728.259C656.14 730.172 657.69 731.814 659.523 733.076C664.011 736.34 669.384 737.772 674.687 738.986C680.576 740.335 686.712 741.64 691.538 745.563C692.123 746.038 692.814 745.088 692.231 744.613C683.835 737.789 672.263 738.786 662.997 733.859C658.674 731.561 655.006 727.924 654.076 722.894C653.263 718.496 654.325 714.015 654.899 709.657C655.607 705.172 655.224 700.578 653.783 696.278C652.09 691.831 649.664 687.71 646.61 684.091C639.862 675.831 631.878 668.7 622.95 662.961C612.797 656.353 601.606 651.559 589.862 648.786C589.135 648.615 589.013 649.791 589.736 649.961Z" fill="white"/>
<path d="M640.415 677.641C643.042 674.877 644.516 671.344 644.574 667.671C644.631 663.999 643.269 660.428 640.729 657.595C640.213 657.024 639.224 657.735 639.741 658.307C642.111 660.941 643.38 664.268 643.318 667.687C643.257 671.106 641.87 674.393 639.407 676.954C638.873 677.511 639.884 678.195 640.415 677.641Z" fill="white"/>
<path d="M654.567 706.795C647.084 707.348 639.662 705.131 633.781 700.584C633.198 700.134 632.511 701.039 633.093 701.489C639.222 706.209 646.951 708.501 654.737 707.909C655.479 707.852 655.305 706.738 654.567 706.795Z" fill="white"/>
<path d="M612.691 657.643C611.981 659.048 610.97 660.234 609.747 661.095C608.524 661.956 607.129 662.464 605.686 662.576C604.946 662.63 605.12 663.899 605.855 663.845C607.449 663.714 608.989 663.15 610.342 662.202C611.695 661.254 612.819 659.951 613.616 658.407C613.702 658.268 613.737 658.099 613.715 657.932C613.693 657.765 613.615 657.614 613.496 657.51C613.373 657.409 613.22 657.367 613.069 657.392C612.919 657.417 612.783 657.507 612.691 657.643Z" fill="white"/>
<path d="M1007.37 748.384C1007.37 748.813 1007.21 749.223 1006.93 749.525C1006.65 749.828 1006.27 749.999 1005.88 750H-112.507C-112.903 750 -113.283 749.83 -113.563 749.527C-113.843 749.224 -114 748.813 -114 748.384C-114 747.956 -113.843 747.545 -113.563 747.242C-113.283 746.939 -112.903 746.769 -112.507 746.769H1005.88C1006.27 746.77 1006.65 746.941 1006.93 747.243C1007.21 747.546 1007.37 747.956 1007.37 748.384Z" fill="#3F3D56"/>
<path d="M606.274 163.077C609.212 163.077 611.594 160.666 611.594 157.692C611.594 154.718 609.212 152.308 606.274 152.308C603.336 152.308 600.955 154.718 600.955 157.692C600.955 160.666 603.336 163.077 606.274 163.077Z" fill="#3F3D56"/>
<path d="M535.898 201.465L611.957 153.238C612.645 152.802 613.414 152.51 614.216 152.382C615.019 152.254 615.839 152.291 616.627 152.492C617.415 152.692 618.154 153.052 618.801 153.549C619.447 154.046 619.987 154.67 620.388 155.384C620.788 156.097 621.041 156.885 621.132 157.7C621.222 158.515 621.148 159.341 620.914 160.126C620.68 160.911 620.29 161.64 619.769 162.269C619.247 162.898 618.605 163.414 617.881 163.786L537.808 204.865C537.363 205.093 536.848 205.139 536.371 204.994C535.893 204.849 535.49 204.523 535.244 204.085C534.998 203.647 534.929 203.131 535.051 202.643C535.172 202.154 535.476 201.733 535.898 201.465Z" fill="#E4E4E4"/>
<path d="M382.688 305.751C382.086 304.839 381.772 303.762 381.788 302.664C381.803 301.566 382.148 300.499 382.775 299.605C384.067 297.842 385.788 296.452 387.767 295.571C391.853 293.452 396.254 292.034 400.793 291.376C404.242 290.877 408.007 290.717 410.683 288.443C413.341 286.184 414.823 281.96 418.266 281.608C421.596 281.267 424.156 284.981 427.494 285.211C431.609 285.496 434.304 280.587 438.308 279.58C440.989 278.906 443.745 280.095 446.259 281.258L461.347 288.234L469.081 291.81C471.782 293.059 474.829 294.741 475.339 297.72C476.04 301.812 471.575 304.699 467.756 306.152C440.492 316.407 410.532 316.411 383.265 306.163" fill="#E68973"/>
<path d="M405.725 380.615C514.723 380.615 603.082 367.838 603.082 352.077C603.082 336.316 514.723 323.539 405.725 323.539C296.728 323.539 208.368 336.316 208.368 352.077C208.368 367.838 296.728 380.615 405.725 380.615Z" fill="#3F3D56"/>
<path d="M806.671 529.231H670.793C664.54 529.231 659.47 534.294 659.47 540.539C659.47 546.784 664.54 551.846 670.793 551.846H806.671C812.925 551.846 817.994 546.784 817.994 540.539C817.994 534.294 812.925 529.231 806.671 529.231Z" fill="#3F3D56"/>
<path d="M872.053 325.349L827.556 540.796L839.145 595.938L861.026 700.007V746.783C861.028 746.847 861.023 746.911 861.013 746.974C861.006 748.008 860.82 749.032 860.464 750H842.875C842.519 749.032 842.333 748.008 842.326 746.974C842.315 746.911 842.311 746.847 842.313 746.783V702.016L822.453 607.56L818.436 588.488L810.664 551.527L808.419 540.821V540.808L810.639 530.077L812.349 521.8L853.74 321.433C853.992 320.206 854.478 319.042 855.171 318.007C855.864 316.972 856.75 316.086 857.779 315.401C858.808 314.715 859.959 314.243 861.167 314.011C862.376 313.779 863.617 313.792 864.82 314.049C866.023 314.307 867.165 314.803 868.179 315.51C869.194 316.218 870.062 317.122 870.734 318.171C871.406 319.22 871.868 320.395 872.095 321.626C872.321 322.858 872.307 324.123 872.053 325.349Z" fill="#3F3D56"/>
<path d="M680.748 540.916V746.785C680.75 746.849 680.746 746.913 680.736 746.976C680.728 748.009 680.538 749.033 680.173 750H662.173C661.809 749.033 661.619 748.009 661.611 746.976C661.601 746.913 661.597 746.849 661.599 746.785V540.916C661.599 538.388 662.607 535.964 664.403 534.176C666.199 532.389 668.634 531.385 671.173 531.385C673.713 531.385 676.148 532.389 677.944 534.176C679.739 535.964 680.748 538.388 680.748 540.916Z" fill="#3F3D56"/>
<path d="M693.44 506.616H784.025C793.034 506.616 801.674 510.133 808.045 516.394C814.415 522.655 817.994 531.146 817.994 540H659.47C659.47 531.146 663.049 522.655 669.42 516.394C675.79 510.133 684.43 506.616 693.44 506.616Z" fill="#3F3D56"/>
<path d="M828.815 606.769H670.992C668.501 606.769 666.111 605.805 664.35 604.088C662.588 602.371 661.598 600.043 661.598 597.615C661.598 595.188 662.588 592.859 664.35 591.143C666.111 589.426 668.501 588.461 670.992 588.461H828.815C831.306 588.461 833.696 589.426 835.457 591.143C837.219 592.859 838.209 595.188 838.209 597.615C838.209 600.043 837.219 602.371 835.457 604.088C833.696 605.805 831.306 606.769 828.815 606.769Z" fill="#3F3D56"/>
<path d="M94.1104 551.846H253.47C259.703 551.846 264.756 546.822 264.756 540.623V537.223C264.756 531.025 259.703 526 253.47 526H94.1104C87.8777 526 82.8252 531.025 82.8252 537.223V540.623C82.8252 546.822 87.8777 551.846 94.1104 551.846Z" fill="#3F3D56"/>
<path d="M92.4008 539.513L89.5059 551.57L78.8844 595.728L74.3039 614.805L53.035 703.298V741.695C53.0406 743.575 52.4884 745.413 51.4496 746.973C50.6329 748.234 49.5224 749.273 48.2155 750H38.9778C37.6709 749.273 36.5604 748.234 35.7437 746.973C34.7048 745.413 34.1523 743.575 34.1577 741.695V701.009L57.7924 602.697L73.0455 539.208L21.3215 290.885C21.0655 289.659 21.0511 288.395 21.279 287.163C21.507 285.932 21.9728 284.758 22.6499 283.709C23.327 282.66 24.2022 281.756 25.2252 281.049C26.2483 280.342 27.3993 279.845 28.6123 279.588C29.8254 279.33 31.0768 279.317 32.2949 279.549C33.513 279.78 34.674 280.252 35.7115 280.938C36.749 281.623 37.6426 282.509 38.3413 283.543C39.04 284.578 39.53 285.742 39.7834 286.968L87.5936 516.443L89.796 527.024L92.3627 539.361L92.4008 539.513Z" fill="#3F3D56"/>
<path d="M260.5 538.795V741.673C260.505 743.558 259.976 745.402 258.98 746.965C258.198 748.23 257.134 749.272 255.882 750H247.019C245.773 749.268 244.714 748.226 243.932 746.965C242.937 745.401 242.408 743.558 242.413 741.673V538.795C242.413 536.259 243.366 533.826 245.062 532.032C246.758 530.239 249.058 529.231 251.457 529.231C253.855 529.231 256.155 530.239 257.851 532.032C259.547 533.826 260.5 536.259 260.5 538.795Z" fill="#3F3D56"/>
<path d="M264.756 538.923H82.8252V533.822C82.8252 529.401 83.7009 525.023 85.4023 520.938C87.1037 516.853 89.5975 513.142 92.7412 510.015C95.885 506.889 99.6172 504.409 103.725 502.717C107.832 501.025 112.235 500.154 116.681 500.154H230.9C239.879 500.154 248.49 503.701 254.84 510.015C261.189 516.329 264.756 524.893 264.756 533.822L264.756 538.923Z" fill="#3F3D56"/>
<path d="M251.13 614.307H69.8534C67.3682 614.307 64.9848 613.286 63.2275 611.469C61.4702 609.651 60.4829 607.186 60.4829 604.615C60.4829 602.045 61.4702 599.579 63.2275 597.762C64.9848 595.944 67.3682 594.923 69.8534 594.923H251.13C253.615 594.923 255.998 595.944 257.755 597.762C259.513 599.579 260.5 602.045 260.5 604.615C260.5 607.186 259.513 609.651 257.755 611.469C255.998 613.286 253.615 614.307 251.13 614.307Z" fill="#3F3D56"/>
<path d="M485.625 697.231L465.837 687.722L493.018 604.615L522.225 618.649L485.625 697.231Z" fill="#9E616A"/>
<path d="M619.041 689.75L597.753 695.077L566.909 612.478L598.33 604.615L619.041 689.75Z" fill="#9E616A"/>
<path d="M538.055 333.777C540.863 338.413 545.343 341.749 550.538 343.073C555.733 344.398 561.231 343.606 565.86 340.867C566.791 340.295 567.673 339.645 568.498 338.924L630.745 375.231L628.041 337.961L569.345 309.197C566.152 305.936 561.983 303.845 557.494 303.251C553.005 302.657 548.449 303.593 544.54 305.913C542.29 307.287 540.332 309.104 538.783 311.258C537.234 313.412 536.125 315.86 535.52 318.456C534.916 321.053 534.829 323.746 535.264 326.377C535.699 329.008 536.648 331.524 538.055 333.777Z" fill="#9E616A"/>
<path d="M604.146 361.255L615.213 368.074L664.912 398.719C668.176 400.784 671.811 402.179 675.609 402.823C679.407 403.467 683.293 403.347 687.045 402.472C690.797 401.596 694.342 399.981 697.477 397.719C700.611 395.457 703.274 392.593 705.313 389.29C708.993 383.159 710.295 375.867 708.968 368.823L686.879 257.232C686.063 252.851 684.321 248.7 681.772 245.063C679.224 241.426 675.928 238.388 672.112 236.157C668.295 233.926 664.047 232.554 659.658 232.136C655.269 231.718 650.843 232.264 646.681 233.735C639.686 236.22 633.89 241.307 630.473 247.96C627.056 254.613 626.274 262.333 628.286 269.549L651.383 348.743L615.978 332.051L604.146 361.255Z" fill="#E6E6E6"/>
<path d="M577.597 667.077L543.503 597.898L543.507 597.74L546.873 470.854C546.915 469.726 547.006 468.592 547.142 467.477C547.736 462.39 549.326 457.473 551.818 453.013C554.31 448.553 557.655 444.64 561.658 441.502C565.491 438.467 569.883 436.236 574.577 434.937C579.272 433.638 584.176 433.298 589.002 433.936L686.493 446.7L689.874 432.714L690.503 432.481L783.915 397.846L784.453 398.733C796.687 418.872 805.24 459.1 807.569 470.949L807.603 471.12C807.652 471.37 807.682 471.521 807.692 471.565C812.5 491.787 792.631 525.283 772.837 530.318C731.142 541.07 693.853 532.683 650.676 522.97C635.194 519.486 619.193 515.886 601.567 512.773L602.091 523.268C602.521 531.346 604.179 539.308 607.009 546.874C610.151 556.185 612.634 563.541 607.385 578.876L604.846 586.294C606.163 589.977 606.616 593.919 606.17 597.81C605.724 601.7 604.391 605.433 602.276 608.713L601.765 609.502L624.249 667.064L577.597 667.077Z" fill="#2F2E41"/>
<path d="M522.374 635.846L481.795 632.04L496.171 585.641C499.138 555.345 506.613 525.673 518.345 497.625L537.954 450.726C537.999 449.683 538.086 448.632 538.212 447.603C538.806 442.538 540.392 437.643 542.879 433.203C545.367 428.763 548.705 424.867 552.7 421.742C556.526 418.723 560.91 416.502 565.595 415.209C570.28 413.916 575.174 413.576 579.99 414.211L677.149 426.9L681.381 391.056L774.637 378.461L775.064 379.162C791.364 405.928 801.713 426.882 807.631 445.105C807.928 446.035 808.192 446.983 808.417 447.928C813.25 468.196 801.187 488.745 781.528 493.734C731.428 506.625 671.181 506.267 591.97 492.602L553.635 584.672C549.971 593.466 545.434 601.864 540.095 609.736L522.374 635.846Z" fill="#2F2E41"/>
<path d="M663.726 170.615C689.58 170.615 710.538 148.677 710.538 121.615C710.538 94.5533 689.58 72.6152 663.726 72.6152C637.872 72.6152 616.913 94.5533 616.913 121.615C616.913 148.677 637.872 170.615 663.726 170.615Z" fill="#9E616A"/>
<path d="M677.455 428L670.719 403.579L669.063 391.532L659.381 391.859L640.379 347.474L632.999 335.77C631.494 334.166 630.13 332.624 628.908 331.144C621.218 322.348 615.052 312.3 610.67 301.424C607.6 293.611 605.797 285.346 605.332 276.95C603.954 252.151 614.285 225.913 636.914 196.742C636.544 195.71 636.296 194.636 636.178 193.544C635.773 190 636.767 186.438 638.945 183.633C641.122 180.827 644.306 179.005 647.803 178.563L669.63 176.083C671.327 175.888 673.046 176.037 674.686 176.521C676.325 177.005 677.854 177.814 679.182 178.901C680.568 180.026 681.72 181.419 682.569 182.998C683.418 184.578 683.949 186.312 684.129 188.101C684.421 190.868 683.883 193.661 682.585 196.114C693.711 197.544 704.193 202.191 712.774 209.498C721.355 216.805 727.67 226.462 730.964 237.311C744.024 261.984 754.434 288.003 762.014 314.922C763.509 320.195 762.843 325.627 762.2 330.881C761.605 335.734 760.991 340.752 762.025 345.753C763.076 350.84 765.605 355.943 768.282 361.346C771.349 367.534 774.52 373.932 775.377 380.455L775.438 380.913L677.455 428Z" fill="#E4E4E4"/>
<path opacity="0.2" d="M610.53 301.126C614.921 311.954 621.095 321.959 628.79 330.721C630.108 332.306 631.5 333.862 632.957 335.421L640.434 347.231C667.994 326.434 690.324 244.551 690.324 244.551L659.228 238.461L610.53 301.126Z" fill="black"/>
<path d="M591.782 174.28C594.474 179 595.256 184.606 593.96 189.905C592.665 195.204 589.395 199.778 584.846 202.654C583.912 203.224 582.934 203.713 581.921 204.118L584.097 277.23L553.078 257.299L555.767 190.927C554.447 186.51 554.597 181.771 556.193 177.451C557.789 173.13 560.742 169.47 564.59 167.042C566.832 165.658 569.322 164.747 571.914 164.362C574.507 163.977 577.148 164.126 579.683 164.801C582.218 165.476 584.595 166.662 586.673 168.29C588.751 169.918 590.488 171.955 591.782 174.28Z" fill="#9E616A"/>
<path d="M587.346 249.573L553.078 254.515L554.552 326.484C554.637 331.618 556.016 336.645 558.556 341.086C561.097 345.528 564.715 349.237 569.067 351.861C574.384 355.033 580.574 356.367 586.703 355.661C592.833 354.956 598.57 352.248 603.05 347.948L683.952 269.028C689.645 263.551 693.051 256.071 693.472 248.125C693.892 240.179 691.294 232.372 686.213 226.309C683.698 223.291 680.611 220.815 677.135 219.029C673.659 217.244 669.865 216.185 665.977 215.915C662.09 215.645 658.189 216.169 654.505 217.458C650.822 218.746 647.431 220.772 644.534 223.415C643.734 224.14 642.974 224.908 642.256 225.716L588.836 288.042L587.346 249.573Z" fill="#E6E6E6"/>
<path d="M299.869 718.769L324.378 718.768L336.039 624L299.865 624.001L299.869 718.769Z" fill="#FFB6B6"/>
<path d="M162.087 171.692C188.822 171.692 210.495 149.513 210.495 122.154C210.495 94.7944 188.822 72.6152 162.087 72.6152C135.352 72.6152 113.679 94.7944 113.679 122.154C113.679 149.513 135.352 171.692 162.087 171.692Z" fill="#FFB6B6"/>
<path d="M332.801 689.692H298.219L289.402 677.783L287.016 666.563L284.962 664.56C282.175 661.865 280.374 658.3 279.849 654.444C279.324 650.588 280.107 646.667 282.071 643.315L257.007 525.478C250.443 524.897 176.414 518.227 124.954 509.049C111.784 506.701 101.502 500.25 94.3925 489.876C76.923 464.384 84.4064 423.136 84.4839 422.723L84.5703 422.263L85.0318 422.21L205.231 408.615L205.393 408.693C209.382 410.597 303.26 455.507 318.601 470.966C325.529 477.947 340.984 519.423 344.444 563.517C345.064 571.416 342.834 579.461 340.677 587.241C338.658 594.52 336.571 602.047 336.984 609.163C337.62 620.143 338.223 631.66 338.776 643.395C338.864 645.265 340.263 647.2 341.614 649.071C343.027 651.026 344.361 652.873 344.446 654.806C345.267 673.545 333.113 689.294 332.99 689.451L332.801 689.692Z" fill="#2F2E41"/>
<path d="M340.278 253.131C337.662 252.402 334.921 252.266 332.249 252.734C329.576 253.202 327.037 254.261 324.81 255.838C322.582 257.414 320.721 259.47 319.357 261.859C317.992 264.249 317.159 266.914 316.914 269.668L276.459 282.56L278.146 309.538L335.026 290.514C339.59 290.626 344.036 289.027 347.521 286.021C351.007 283.014 353.289 278.808 353.937 274.201C354.584 269.593 353.551 264.903 351.033 261.019C348.516 257.136 344.689 254.329 340.278 253.131Z" fill="#FFB6B6"/>
<path d="M313.696 297.362L283.493 308.888L282.721 310.399C280.869 314.021 277.666 316.753 273.817 317.994C269.968 319.235 265.787 318.883 262.195 317.016L194.307 342.923C194.307 342.923 163.99 312.333 142.405 285.034L149.762 239.412C151.466 228.826 155.087 218.648 160.445 209.384C204.711 219.171 230.122 281.564 230.122 281.564L309.901 266.216L313.696 297.362Z" fill="#E68973"/>
<path d="M155.207 168.435C143 171.738 129.542 167.346 120.016 159.014C110.49 150.682 104.531 138.876 101.097 126.682C98.5824 117.75 97.39 107.836 101.358 99.4516C105.327 91.0669 116.007 85.4099 124.246 89.6453C119.163 83.7107 121.703 73.8952 127.639 68.8183C133.576 63.7415 141.727 62.286 149.491 61.4903C160.759 60.3356 172.397 60.2064 183.119 63.8644C193.841 67.5225 203.583 75.52 206.939 86.3606C210.366 87.9597 214.226 88.3746 217.913 87.5402C221.601 86.7059 224.908 84.6694 227.317 81.7498C227.939 85.103 227.44 88.5678 225.898 91.6082C224.356 94.6487 221.858 97.0952 218.789 98.5692L235.217 93.2318C238.042 99.2247 233.091 106.642 226.761 108.561C220.43 110.48 213.596 108.382 207.589 105.61C201.581 102.837 195.759 99.3318 189.234 98.2505C182.709 97.1691 175.044 99.2703 172.025 105.168C170.444 108.257 170.362 111.874 169.444 115.222C168.526 118.569 166.201 122.04 162.748 122.314C160.566 122.487 158.43 121.322 156.254 121.56C153.557 121.856 151.492 124.304 150.774 126.926C150.232 129.598 150.225 132.352 150.754 135.026L154.927 166.991" fill="#2F2E41"/>
<path d="M95.3648 495.846C95.3556 495.846 95.3464 495.845 95.3375 495.843L94.9551 495.776L94.8445 495.398C93.4541 490.637 91.6848 485.763 89.9737 481.049C87.4538 474.522 85.3261 467.844 83.6023 461.054C82.2457 454.562 81.305 447.987 80.7863 441.37C80.309 436.567 79.8154 431.599 78.9761 426.71C78.6034 424.539 80.0157 422.482 81.3816 420.494C82.6479 418.651 83.8442 416.909 83.5932 415.262C83.3365 413.577 81.5015 411.727 79.7271 409.938C77.7819 407.976 75.7706 405.948 75.4858 403.814C71.6092 374.69 69.8047 345.319 70.0867 315.93C70.4874 275.267 72.2924 247.551 75.4513 233.551C83.9454 195.904 123.189 189.034 129.332 188.186C129.986 186.412 130.992 184.794 132.287 183.433C133.582 182.071 135.138 180.996 136.859 180.274C138.579 179.551 140.428 179.197 142.289 179.233C144.15 179.269 145.984 179.695 147.676 180.484L175.559 193.479C181.215 196.124 186.277 199.926 190.429 204.647C194.581 209.368 197.735 214.907 199.695 220.922L203.837 233.778L205.912 320.082L194.414 380.856L216.879 415.164C97.1462 482.091 95.7504 495.846 95.3648 495.846Z" fill="#E68973"/>
<path d="M287.098 709.935L294.992 709.934L325.812 697.231L342.331 709.932H342.333C351.668 709.933 360.62 713.692 367.221 720.382C373.822 727.072 377.531 736.145 377.531 745.607V746.766L287.1 746.769L287.098 709.935Z" fill="#2F2E41"/>
<path d="M350.144 315.346C347.809 313.96 345.201 313.109 342.505 312.852C339.809 312.595 337.09 312.939 334.539 313.859C331.989 314.779 329.669 316.253 327.743 318.177C325.817 320.102 324.332 322.429 323.393 324.996L281.094 326.663L275.395 346.575L335.528 349.686C339.9 350.995 344.595 350.638 348.723 348.683C352.852 346.728 356.127 343.31 357.929 339.077C359.731 334.844 359.933 330.09 358.498 325.716C357.064 321.343 354.091 317.653 350.144 315.346Z" fill="#FFB6B6"/>
<path d="M315.823 351.538L272.452 350.988L266.962 350.913L178.721 349.782C178.721 349.782 154.759 326.523 133.893 302.577L136.818 281.056C139.67 259.935 149.968 240.588 165.795 226.615C195.68 246.931 213.01 287.144 213.01 287.144L242.068 300.373C262.518 301.304 282.445 307.241 300.158 317.681L309.714 323.314L315.823 351.538Z" fill="#E68973"/>
<path d="M635 730.887L620.461 734.529L614.478 721.245L611.219 736.845L572.658 746.506C570.809 746.969 568.864 746.82 567.104 746.081C565.345 745.342 563.865 744.052 562.879 742.398C561.893 740.744 561.454 738.814 561.626 736.889C561.797 734.965 562.571 733.146 563.832 731.699L589.378 702.394L585.953 688.306L618.82 682.154L635 730.887Z" fill="#2F2E41"/>
<path d="M481.582 734.923L467.785 729.196L470.64 714.925L459.016 725.555L422.424 710.364C420.67 709.636 419.191 708.356 418.202 706.713C417.213 705.069 416.767 703.147 416.929 701.227C417.09 699.307 417.851 697.49 419.1 696.041C420.349 694.592 422.02 693.587 423.87 693.173L461.329 684.778L466.704 671.385L496.691 686.01L481.582 734.923Z" fill="#2F2E41"/>
<path d="M433.731 347.23H422.404C410.225 347.216 398.549 342.287 389.937 333.524C381.325 324.761 376.481 312.879 376.468 300.486V299.846H479.668V300.486C479.654 312.879 474.81 324.761 466.198 333.524C457.586 342.287 445.91 347.216 433.731 347.23Z" fill="#E4E4E4"/>
<path d="M422.216 283.154C422.216 286.425 416.896 289.077 416.896 289.077C416.896 289.077 411.577 286.425 411.577 283.154C411.577 279.882 416.896 277.23 416.896 277.23C416.896 277.23 422.216 279.882 422.216 283.154Z" fill="#3F3D56"/>
<path d="M456.261 283.154C456.261 286.425 450.942 289.077 450.942 289.077C450.942 289.077 445.622 286.425 445.622 283.154C445.622 279.882 450.942 277.23 450.942 277.23C450.942 277.23 456.261 279.882 456.261 283.154Z" fill="#3F3D56"/>
<path d="M433.919 295C433.919 298.271 428.067 300.923 428.067 300.923C428.067 300.923 422.216 298.271 422.216 295C422.216 291.729 428.067 289.077 428.067 289.077C428.067 289.077 433.919 291.728 433.919 295Z" fill="#3F3D56"/>
<path d="M394.022 270.769C397.254 270.769 399.874 268.358 399.874 265.385C399.874 262.411 397.254 260 394.022 260C390.79 260 388.171 262.411 388.171 265.385C388.171 268.358 390.79 270.769 394.022 270.769Z" fill="#3F3D56"/>
<path d="M312.694 253.557L401.1 266.096C401.9 266.209 402.669 266.488 403.361 266.915C404.053 267.342 404.653 267.908 405.126 268.581C405.599 269.253 405.934 270.016 406.111 270.825C406.289 271.634 406.305 272.471 406.158 273.287C406.011 274.102 405.705 274.878 405.258 275.569C404.812 276.259 404.233 276.85 403.558 277.304C402.882 277.759 402.124 278.068 401.33 278.213C400.535 278.358 399.719 278.336 398.933 278.149L311.995 257.442C311.512 257.328 311.091 257.026 310.82 256.6C310.548 256.174 310.446 255.658 310.536 255.157C310.626 254.657 310.901 254.211 311.303 253.913C311.704 253.615 312.203 253.488 312.694 253.557Z" fill="#E4E4E4"/>
<path d="M789.632 100.727C781.623 91.3198 777.816 78.8383 771.413 68.1556C765.011 57.4728 753.869 47.9117 742.099 50.3977C733.985 52.1115 727.714 59.3233 724.54 67.3637C721.366 75.404 720.771 84.2709 720.215 92.9574C720.411 75.1063 708.735 57.8008 692.651 52.1047C676.569 46.4086 657.321 52.7623 647.214 67.1036C642.804 62.9861 637.047 60.6416 631.035 60.5145C625.023 60.3873 619.174 62.4865 614.596 66.4139C605.556 74.5521 603.555 90.0418 610.204 100.422C616.852 110.803 631.25 114.67 641.815 108.913L645.55 112.374C643.447 119.78 647.524 128.53 654.378 131.318C659.936 133.579 667.782 133.203 669.862 139.078C671.315 143.183 668.599 147.564 665.709 150.718C662.82 153.873 659.389 157.13 659.042 161.495C658.518 168.081 665.275 172.695 671.417 174.084C686.227 177.435 702.661 170.526 711.197 157.361C711.362 157.107 711.54 156.853 711.734 156.598C716.523 150.429 720.013 143.341 721.991 135.767C723.969 128.194 724.393 120.293 723.238 112.549C722.757 109.506 723.241 107.243 725.324 106.522C734.326 103.407 759.548 109.945 767.181 115.853C774.815 121.761 780.928 129.58 788.28 135.87C795.633 142.16 805.003 147.011 814.338 145.298C821.815 143.927 828.176 138.459 832.455 131.864C836.733 125.268 839.195 117.581 841.401 109.941C824.866 119.562 802.238 115.534 789.632 100.727Z" fill="#2F2E41"/>
</g>
<defs>
<clipPath id="clip0_322_2">
<rect width="893.68" height="749.53" fill="white"/>
</clipPath>
</defs>
</svg>
