<svg width="93" height="81" viewBox="0 0 93 81" fill="none" xmlns="http://www.w3.org/2000/svg">
<path d="M48.4649 69.3704H44.4649C42.7982 67.8704 39.1649 64.4704 37.9649 62.8704C36.7649 61.2704 38.4649 59.5371 39.4649 58.8704H52.9649C55.3649 58.8704 55.2982 61.5371 54.9649 62.8704L48.4649 69.3704Z" fill="url(#paint0_linear_315_23)"/>
<path d="M29.965 77.3704C33.965 81.7704 43.1667 75.6667 46.5 72V74V74.5L44.4649 75.8706C42.6316 77.2039 38.6651 79.9706 37.4651 80.3706C35.9651 80.8706 32.4651 80.8706 30.4651 80.3706C28.4651 79.8706 22.9651 69.3704 21.4651 66.3706C20.2651 63.9707 18.2984 61.704 17.4651 60.8706L15.4651 62.8704C14.4651 61.3705 12.3651 56.3706 11.9651 48.3706C11.5651 40.3706 15.7984 33.0373 17.9651 30.3706C16.9651 29.8706 14.3651 28.4706 11.9651 26.8706C9.56509 25.2706 5.29839 20.2039 3.46504 17.8706C0.965038 13.7039 -2.63496 4.47043 2.96504 0.870432C8.56504 -2.72957 21.965 5.70377 27.965 10.3704C28.7984 9.87043 31.265 8.87043 34.465 8.87043C38.465 8.87043 36.965 18.3704 36.465 23.3704C35.965 28.3704 33.465 38.8704 32.965 42.8704C32.565 46.0704 30.1317 51.5371 28.965 53.8704C27.465 56.3704 24.365 61.8704 23.965 63.8704C23.465 66.3704 24.965 71.8704 29.965 77.3704Z" fill="url(#paint1_linear_315_23)"/>
<path d="M63.0001 77.3704C59.0001 81.7704 49.8333 75.6667 46.5 72V74V74.5L48.5002 75.8706C50.3335 77.2039 54.3 79.9706 55.5 80.3706C57 80.8706 60.5 80.8706 62.5 80.3706C64.5 79.8706 70 69.3704 71.5 66.3706C72.7 63.9707 74.6667 61.704 75.5 60.8706L77.5 62.8704C78.5 61.3705 80.6 56.3706 81 48.3706C81.4 40.3706 77.1667 33.0373 75 30.3706C76 29.8706 78.6 28.4706 81 26.8706C83.4 25.2706 87.6667 20.2039 89.5 17.8706C92 13.7039 95.6 4.47043 90 0.870432C84.4 -2.72957 71 5.70377 65 10.3704C64.1667 9.87043 61.7001 8.87043 58.5 8.87043C54.5 8.87043 56 18.3704 56.5 23.3704C57 28.3704 59.5 38.8704 60 42.8704C60.4001 46.0704 62.8334 51.5371 64 53.8704C65.5001 56.3704 68.6001 61.8704 69.0001 63.8704C69.5001 66.3704 68.0001 71.8704 63.0001 77.3704Z" fill="url(#paint2_linear_315_23)"/>
<defs>
<linearGradient id="paint0_linear_315_23" x1="27.567" y1="0" x2="27.567" y2="80.7456" gradientUnits="userSpaceOnUse">
<stop stop-color="#F8B261"/>
<stop offset="1" stop-color="#FECD7C"/>
</linearGradient>
<linearGradient id="paint1_linear_315_23" x1="27.567" y1="0" x2="27.567" y2="80.7456" gradientUnits="userSpaceOnUse">
<stop stop-color="#F8B261"/>
<stop offset="1" stop-color="#FECD7C"/>
</linearGradient>
<linearGradient id="paint2_linear_315_23" x1="65.3981" y1="0" x2="65.3981" y2="80.7456" gradientUnits="userSpaceOnUse">
<stop stop-color="#F8B261"/>
<stop offset="1" stop-color="#FECD7C"/>
</linearGradient>
</defs>
</svg>
