<svg width="4958" height="1080" viewBox="0 0 4958 1080" fill="none" xmlns="http://www.w3.org/2000/svg">
<mask id="mask0_318_33" style="mask-type:alpha" maskUnits="userSpaceOnUse" x="0" y="0" width="4958" height="1080">
<rect width="4958" height="1080" fill="#D9D9D9"/>
</mask>
<g mask="url(#mask0_318_33)">
<path d="M1488 -318C1382.8 -503.6 1465.5 -647.333 1520 -696L5419.5 -779C5468.17 293.667 5564.4 2457 5560 2529C5555.6 2601 2599.33 2293.5 2528 2408L2083.5 2633C1310.83 2612.33 -242.3 2428.1 -273.5 1856.5C-304.7 1284.9 283.5 1145.67 581.5 1147.5C755 1148 1096.9 1081.5 1076.5 811.5C1051 474 1391.5 441.5 1520 345.5C1648.5 249.5 1619.5 -86 1488 -318Z" fill="url(#paint0_linear_318_33)"/>
</g>
<defs>
<linearGradient id="paint0_linear_318_33" x1="2011" y1="-410.502" x2="1236" y2="900.498" gradientUnits="userSpaceOnUse">
<stop stop-color="#7C6361"/>
<stop offset="1" stop-color="#7F5949"/>
</linearGradient>
</defs>
</svg>
